<svg width="16" height="16" viewBox="0 0 16 16" fill="none" xmlns="http://www.w3.org/2000/svg">
<path d="M9.38317 2.97992H4.46722C4.00021 2.97992 3.62122 2.60108 3.62122 2.13423V0.845693C3.62122 0.378848 4.00021 0 4.46722 0H9.38317C9.85018 0 10.2292 0.378848 10.2292 0.845693V2.13423C10.2292 2.60165 9.85018 2.97992 9.38317 2.97992Z" fill="#999999"/>
<path d="M15.068 9.13691C14.5421 8.61121 13.6846 8.61121 13.1587 9.13691L12.5345 9.76432L14.4449 11.6734L15.068 11.0506C15.5996 10.5197 15.5996 9.66833 15.068 9.13691Z" fill="#999999"/>
<path d="M11.9298 10.3712L8.5972 13.6968C8.5286 13.7711 8.48287 13.8625 8.46572 13.9596L8.21421 15.4396C8.15705 15.7653 8.44286 16.0453 8.76868 15.9939L10.2492 15.7425C10.3464 15.7253 10.4378 15.6796 10.5064 15.611L13.839 12.2797L11.9298 10.3712Z" fill="#999999"/>
<path d="M11.7983 1.49139H11.0866V2.13423C11.0866 3.07306 10.3223 3.83705 9.38317 3.83705H4.46723C3.52748 3.83705 2.76379 3.07306 2.76379 2.13423V1.49139H2.04069C0.914595 1.49139 0 2.40565 0 3.53134V13.9596C0 15.0853 0.914595 15.9996 2.04069 15.9996H7.44652C7.35963 15.7762 7.32705 15.5339 7.36935 15.2922L7.62029 13.8162C7.66488 13.5545 7.78492 13.3128 7.96555 13.1157L11.6039 9.48376L12.55 8.53293C12.9015 8.18093 13.3525 7.97237 13.8378 7.91237V3.53705C13.839 2.39994 12.9301 1.49139 11.7983 1.49139ZM6.03518 9.96717H3.55492C3.27082 9.96717 3.04046 9.73689 3.04046 9.4529C3.04046 9.16891 3.27082 8.93863 3.55492 8.93863H6.03518C6.31928 8.93863 6.54964 9.16891 6.54964 9.4529C6.54964 9.73689 6.31928 9.96717 6.03518 9.96717ZM9.07164 7.04839H3.55549C3.27139 7.04839 3.04103 6.81811 3.04103 6.53412C3.04103 6.25013 3.27139 6.01985 3.55549 6.01985H9.07164C9.35574 6.01985 9.5861 6.25013 9.5861 6.53412C9.5861 6.81811 9.35574 7.04839 9.07164 7.04839Z" fill="#999999"/>
</svg>
