<svg width="56" height="50" viewBox="0 0 56 50" fill="none" xmlns="http://www.w3.org/2000/svg">
<path d="M28 37.5C33.5229 37.5 38 32.8363 38 27.0833C38 21.3304 33.5229 16.6667 28 16.6667C22.4772 16.6667 18 21.3304 18 27.0833C18 32.8363 22.4772 37.5 28 37.5Z" fill="#ED1D24"/>
<path d="M50 8.33336H44.472C44.1004 8.3346 43.7359 8.22731 43.4198 8.02368C43.1038 7.82004 42.8489 7.5282 42.684 7.18128L40.894 3.4542C40.3988 2.41367 39.6335 1.53851 38.6851 0.927979C37.7366 0.31745 36.6429 -0.00401693 35.528 3.78901e-05H20.472C19.3571 -0.00401693 18.2634 0.31745 17.3149 0.927979C16.3665 1.53851 15.6012 2.41367 15.106 3.4542L13.306 7.18128C13.1419 7.52661 12.8885 7.8174 12.5744 8.02093C12.2603 8.22446 11.8979 8.33266 11.528 8.33336H6C4.4087 8.33336 2.88258 8.99184 1.75736 10.1639C0.632141 11.336 0 12.9258 0 14.5834V43.75C0 45.4076 0.632141 46.9973 1.75736 48.1694C2.88258 49.3415 4.4087 50 6 50H50C51.5913 50 53.1174 49.3415 54.2426 48.1694C55.3679 46.9973 56 45.4076 56 43.75V14.5834C56 12.9258 55.3679 11.336 54.2426 10.1639C53.1174 8.99184 51.5913 8.33336 50 8.33336ZM28 41.6667C25.2311 41.6667 22.5243 40.8114 20.222 39.2089C17.9197 37.6065 16.1253 35.3289 15.0657 32.6641C14.0061 29.9994 13.7288 27.0672 14.269 24.2383C14.8092 21.4094 16.1426 18.8109 18.1005 16.7714C20.0584 14.7319 22.553 13.3429 25.2687 12.7802C27.9845 12.2175 30.7994 12.5063 33.3576 13.6101C35.9157 14.7139 38.1022 16.5831 39.6406 18.9813C41.1789 21.3795 42 24.199 42 27.0833C41.9958 30.9497 40.5194 34.6565 37.8948 37.3904C35.2702 40.1244 31.7117 41.6623 28 41.6667ZM48 18.75C47.6044 18.75 47.2178 18.6278 46.8889 18.3989C46.56 18.17 46.3036 17.8446 46.1522 17.4639C46.0009 17.0833 45.9613 16.6644 46.0384 16.2603C46.1156 15.8561 46.3061 15.4849 46.5858 15.1936C46.8655 14.9022 47.2219 14.7038 47.6098 14.6234C47.9978 14.543 48.3999 14.5843 48.7654 14.7419C49.1308 14.8996 49.4432 15.1667 49.6629 15.5093C49.8827 15.8519 50 16.2546 50 16.6667C50 17.2192 49.7893 17.7491 49.4142 18.1398C49.0391 18.5305 48.5304 18.75 48 18.75Z" fill="#ED1D24"/>
</svg>
