<svg width="42" height="50" viewBox="0 0 42 50" fill="none" xmlns="http://www.w3.org/2000/svg">
<path d="M33.8403 0H7.37631C3.3025 0 0 3.3025 0 7.37631V42.6237C0 46.6975 3.3025 50 7.37631 50H33.8403C37.9141 50 41.2166 46.6975 41.2166 42.6237V7.37631C41.2166 3.3025 37.9141 0 33.8403 0ZM14.5142 13.9526H26.7022C27.6423 13.9518 28.405 14.7134 28.4058 15.6535C28.4066 16.5936 27.645 17.3564 26.7049 17.357C26.704 17.357 26.7031 17.357 26.7022 17.357H14.5142C13.5741 17.357 12.812 16.5949 12.812 15.6548C12.812 14.7147 13.5741 13.9526 14.5142 13.9526ZM31.0883 36.0475H10.1282C9.18814 36.0475 8.42602 35.2854 8.42602 34.3453C8.42602 33.4052 9.18814 32.6431 10.1282 32.6431H31.0883C32.0284 32.6431 32.7906 33.4052 32.7906 34.3453C32.7906 35.2854 32.0284 36.0475 31.0883 36.0475ZM31.0883 26.7022H10.1282C9.18814 26.7022 8.42602 25.9401 8.42602 25C8.42602 24.0599 9.18814 23.2978 10.1282 23.2978H31.0883C32.0284 23.2978 32.7906 24.0599 32.7906 25C32.7906 25.9401 32.0284 26.7022 31.0883 26.7022Z" fill="#E0E0E0"/>
</svg>
