<svg width="29" height="30" viewBox="0 0 29 30" fill="none" xmlns="http://www.w3.org/2000/svg">
<path d="M17.5934 5.58736H8.37604C7.50038 5.58736 6.78979 4.87702 6.78979 4.00168V1.58567C6.78979 0.710339 7.50038 0 8.37604 0H17.5934C18.4691 0 19.1797 0.710339 19.1797 1.58567V4.00168C19.1797 4.87809 18.4691 5.58736 17.5934 5.58736Z" fill="white"/>
<path d="M28.2524 17.1317C27.2664 16.146 25.6587 16.146 24.6726 17.1317L23.5022 18.3081L27.0842 21.8877L28.2524 20.7198C29.2492 19.7245 29.2492 18.1281 28.2524 17.1317Z" fill="white"/>
<path d="M22.3683 19.4459L16.1197 25.6815C15.9911 25.8208 15.9054 25.9922 15.8732 26.1743L15.4016 28.9493C15.2945 29.56 15.8304 30.0849 16.4413 29.9885L19.2172 29.5171C19.3994 29.485 19.5709 29.3992 19.6995 29.2707L25.9481 23.0244L22.3683 19.4459Z" fill="white"/>
<path d="M22.1218 2.79636H20.7874V4.00168C20.7874 5.762 19.3544 7.19446 17.5935 7.19446H8.37605C6.61402 7.19446 5.18211 5.762 5.18211 4.00168V2.79636H3.82629C1.71487 2.79636 0 4.5106 0 6.62126V26.1743C0 28.285 1.71487 29.9992 3.82629 29.9992H13.9622C13.7993 29.5803 13.7382 29.126 13.8175 28.6728L14.288 25.9054C14.3716 25.4147 14.5967 24.9615 14.9354 24.5919L21.7574 17.782L23.5312 15.9992C24.1903 15.3393 25.036 14.9482 25.9459 14.8357V6.63197C25.9481 4.49989 24.2439 2.79636 22.1218 2.79636ZM11.316 18.6885H6.66547C6.13279 18.6885 5.70086 18.2567 5.70086 17.7242C5.70086 17.1917 6.13279 16.7599 6.66547 16.7599H11.316C11.8487 16.7599 12.2806 17.1917 12.2806 17.7242C12.2806 18.2567 11.8487 18.6885 11.316 18.6885ZM17.0093 13.2157H6.66654C6.13386 13.2157 5.70193 12.784 5.70193 12.2515C5.70193 11.719 6.13386 11.2872 6.66654 11.2872H17.0093C17.542 11.2872 17.9739 11.719 17.9739 12.2515C17.9739 12.784 17.542 13.2157 17.0093 13.2157Z" fill="white"/>
</svg>
