<svg width="31" height="30" viewBox="0 0 31 30" fill="none" xmlns="http://www.w3.org/2000/svg">
<path d="M11.302 22.9722V29.0217C11.302 29.4443 11.5707 29.8187 11.9685 29.9517C12.068 29.9843 12.17 30 12.2708 30C12.573 30 12.865 29.8565 13.051 29.6009L16.5552 24.7852L11.302 22.9722Z" fill="white"/>
<path d="M30.5931 0.18142C30.296 -0.0311888 29.9059 -0.0598844 29.583 0.110985L0.520597 15.4371C0.177015 15.6184 -0.0257758 15.9888 0.00264078 16.3788C0.032349 16.7701 0.28939 17.104 0.65493 17.2306L8.73428 20.0192L25.9405 5.16272L12.6261 21.3614L26.1666 26.0349C26.2673 26.0688 26.3732 26.0871 26.4791 26.0871C26.6548 26.0871 26.8292 26.0388 26.9829 25.9449C27.2283 25.7936 27.3949 25.5392 27.4376 25.2536L30.9896 1.12316C31.0426 0.757942 30.8902 0.395333 30.5931 0.18142Z" fill="white"/>
</svg>
