<svg width="60" height="50" viewBox="0 0 60 50" fill="none" xmlns="http://www.w3.org/2000/svg">
<path d="M1.75781 40H44.1797C45.1513 40 45.9375 39.2546 45.9375 38.3333V8.33333C45.9375 7.41211 45.1513 6.66667 44.1797 6.66667H1.75781C0.786211 6.66667 0 7.41211 0 8.33333V38.3333C0 39.2546 0.786211 40 1.75781 40Z" fill="#E0E0E0"/>
<path d="M17.6953 43.3333V45C17.6953 45.9196 16.9073 46.6667 15.9375 46.6667H12.4219C11.4503 46.6667 10.6641 47.4121 10.6641 48.3333C10.6641 49.2546 11.4503 50 12.4219 50H33.6328C34.6044 50 35.3906 49.2546 35.3906 48.3333C35.3906 47.4121 34.6044 46.6667 33.6328 46.6667H30C29.0302 46.6667 28.2422 45.9196 28.2422 45V43.3333H17.6953Z" fill="#E0E0E0"/>
<path d="M58.2422 0H40.6641C39.6925 0 38.9062 0.745444 38.9062 1.66667V3.33333H44.1797C47.0876 3.33333 49.4531 5.57622 49.4531 8.33333V38.3333C49.4531 41.0904 47.0876 43.3333 44.1797 43.3333H38.9062V48.3333C38.9062 49.2546 39.6925 50 40.6641 50H58.2422C59.2138 50 60 49.2546 60 48.3333V1.66667C60 0.745444 59.2138 0 58.2422 0ZM54.7266 41.6667C53.7558 41.6667 52.9688 40.9204 52.9688 40C52.9688 39.0793 53.7558 38.3333 54.7266 38.3333C55.6973 38.3333 56.4844 39.0793 56.4844 40C56.4844 40.9204 55.6973 41.6667 54.7266 41.6667ZM54.7266 35C53.7558 35 52.9688 34.2538 52.9688 33.3333C52.9688 32.4127 53.7558 31.6667 54.7266 31.6667C55.6973 31.6667 56.4844 32.4127 56.4844 33.3333C56.4844 34.2538 55.6973 35 54.7266 35Z" fill="#E0E0E0"/>
</svg>
