<svg width="34" height="28" viewBox="0 0 34 28" fill="none" xmlns="http://www.w3.org/2000/svg">
<path d="M0.996094 22.4H25.0352C25.5857 22.4 26.0312 21.9826 26.0312 21.4667V4.66667C26.0312 4.15078 25.5857 3.73333 25.0352 3.73333H0.996094C0.44552 3.73333 0 4.15078 0 4.66667V21.4667C0 21.9826 0.44552 22.4 0.996094 22.4Z" fill="white"/>
<path d="M10.0273 24.2667V25.2C10.0273 25.715 9.58083 26.1333 9.03125 26.1333H7.03906C6.48849 26.1333 6.04297 26.5508 6.04297 27.0667C6.04297 27.5826 6.48849 28 7.03906 28H19.0586C19.6092 28 20.0547 27.5826 20.0547 27.0667C20.0547 26.5508 19.6092 26.1333 19.0586 26.1333H17C16.4504 26.1333 16.0039 25.715 16.0039 25.2V24.2667H10.0273Z" fill="white"/>
<path d="M33.0039 0H23.043C22.4924 0 22.0469 0.417449 22.0469 0.933333V1.86667H25.0352C26.683 1.86667 28.0234 3.12268 28.0234 4.66667V21.4667C28.0234 23.0106 26.683 24.2667 25.0352 24.2667H22.0469V27.0667C22.0469 27.5826 22.4924 28 23.043 28H33.0039C33.5545 28 34 27.5826 34 27.0667V0.933333C34 0.417449 33.5545 0 33.0039 0ZM31.0117 23.3333C30.4616 23.3333 30.0156 22.9154 30.0156 22.4C30.0156 21.8844 30.4616 21.4667 31.0117 21.4667C31.5618 21.4667 32.0078 21.8844 32.0078 22.4C32.0078 22.9154 31.5618 23.3333 31.0117 23.3333ZM31.0117 19.6C30.4616 19.6 30.0156 19.1821 30.0156 18.6667C30.0156 18.1511 30.4616 17.7333 31.0117 17.7333C31.5618 17.7333 32.0078 18.1511 32.0078 18.6667C32.0078 19.1821 31.5618 19.6 31.0117 19.6Z" fill="white"/>
</svg>
