<svg width="46" height="51" viewBox="0 0 46 51" fill="none" xmlns="http://www.w3.org/2000/svg">
<path d="M34.1084 38.2554C34.4496 38.8358 35.4778 39.0867 36.4919 39.0867V41.4069C36.4919 42.8622 35.2636 43.5718 34.1084 43.5718C32.9564 43.5718 31.7262 42.8622 31.7262 41.4069V39.0861C32.7416 39.0861 33.771 38.8358 34.1084 38.2554ZM18.7194 35.4177C20.1129 35.7306 21.5388 35.8821 22.9984 35.8694C24.4618 35.8821 25.8878 35.7306 27.2781 35.4177L25.2155 38.8383H23.4318L25.3019 40.1055L25.8731 48.6619H20.1243L20.7839 38.8383L18.7194 35.4177ZM10.4148 18.4587C11.5669 19.9476 13.4077 21.185 15.6909 22.0124C17.948 22.8278 20.4865 23.1941 22.9984 23.1079C25.5103 23.1941 28.0521 22.8272 30.306 22.0124C32.5897 21.1843 34.4331 19.947 35.5845 18.4587V20.4285C35.5845 24.6627 33.3186 28.5662 29.6406 30.6848C27.592 31.8633 25.2822 32.3809 22.9984 32.2491C20.7185 32.3809 18.408 31.8633 16.3594 30.6848C12.6827 28.5655 10.4155 24.6627 10.4155 20.4285L10.4148 18.4587ZM10.3761 13.143H35.6239L35.5839 14.8429H10.4148L10.3761 13.143ZM22.9984 4.73478C23.339 5.31894 24.3684 5.56667 25.3807 5.56667V7.89C25.3807 9.34469 24.153 10.0511 22.9984 10.0511C21.847 10.0511 20.6187 9.34469 20.6187 7.89V5.56667C21.6354 5.56667 22.6616 5.31894 22.9984 4.73478ZM22.9984 0.527832C21.7085 0.527832 20.2883 1.01315 19.3516 1.50164C18.2555 2.07249 16.9618 2.80491 15.499 3.53035C12.5702 4.98251 8.96349 6.38842 5.01424 6.38842C4.07443 6.37892 3.60421 7.51365 4.26951 8.17447C5.92483 9.82431 7.08704 10.4997 7.59603 11.0642C7.84766 11.3449 7.99635 11.5825 8.12154 12.0646C8.28103 12.9884 8.32043 13.7145 8.32043 14.457C8.01859 14.4336 7.72184 14.5064 7.46004 14.642C6.6721 15.0577 6.50371 17.1263 7.08958 19.2646C7.41366 20.4526 7.90612 21.3966 8.41002 21.944C8.81353 25.6435 10.6938 29.0223 13.6028 31.3292C9.53856 31.3292 6.41793 31.9925 3.62835 34.7239C1.53268 36.8027 0 39.6975 0 42.9572V49.5939C0 50.2072 0.374273 50.5278 0.934094 50.5278H45.0672C45.6264 50.5278 46 50.2079 46 49.5939V42.9572C46 39.6975 44.4648 36.8033 42.3697 34.7239C39.5827 31.9919 36.4627 31.3292 32.3984 31.3292C35.3069 29.0217 37.1839 25.6428 37.5912 21.944C38.0939 21.3966 38.5838 20.4526 38.9117 19.2646C39.4976 17.1263 39.3279 15.0577 38.5374 14.642C38.2794 14.5071 37.982 14.4342 37.6802 14.457C37.6802 13.7145 37.7202 12.9884 37.8785 12.0646C38.0043 11.5825 38.1543 11.3449 38.4052 11.0642C38.9149 10.4997 40.0764 9.82367 41.7305 8.17447C42.3958 7.51365 41.9262 6.37955 40.9858 6.38842C37.034 6.38842 33.4298 4.98251 30.501 3.53035C29.0383 2.80491 27.7451 2.07249 26.649 1.50164C25.7124 1.01315 24.2922 0.527832 22.9984 0.527832Z" fill="#E0E0E0"/>
</svg>
