<svg width="42" height="50" viewBox="0 0 42 50" fill="none" xmlns="http://www.w3.org/2000/svg">
<path d="M21 28.5254C24.1472 28.5254 27.0559 27.6172 29.3828 26.0742C31.1853 24.8926 33.5313 25.0879 35.1144 26.5625C39.5109 30.6445 42.0095 36.4355 42 42.5195V45.127C42 47.8223 39.8637 50 37.2316 50H4.76849C2.13634 50 0.000108406 47.8223 0.000108406 45.127V42.5195C-0.0189651 36.4453 2.47966 30.6445 6.87611 26.5723C8.45921 25.0977 10.8148 24.9023 12.6077 26.084C14.9442 27.6172 17.8434 28.5254 21 28.5254Z" fill="#ED1D24"/>
<path d="M21.0001 24.1797C27.5206 24.1797 32.8066 18.7669 32.8066 12.0898C32.8066 5.41281 27.5206 0 21.0001 0C14.4795 0 9.19356 5.41281 9.19356 12.0898C9.19356 18.7669 14.4795 24.1797 21.0001 24.1797Z" fill="#ED1D24"/>
</svg>
