<svg width="50" height="50" viewBox="0 0 50 50" fill="none" xmlns="http://www.w3.org/2000/svg">
<path d="M25 0C20.0555 0 15.222 1.46622 11.1108 4.21326C6.99953 6.96029 3.79521 10.8648 1.90302 15.4329C0.0108322 20.0011 -0.484251 25.0277 0.480379 29.8773C1.44501 34.7268 3.82603 39.1814 7.32234 42.6777C10.8187 46.174 15.2732 48.555 20.1228 49.5196C24.9723 50.4842 29.9989 49.9892 34.5671 48.097C39.1352 46.2048 43.0397 43.0005 45.7867 38.8892C48.5338 34.778 50 29.9445 50 25C49.9922 18.372 47.3558 12.0177 42.669 7.33097C37.9823 2.64425 31.628 0.00781925 25 0ZM33.425 33.425C32.9988 33.8511 32.4208 34.0904 31.8182 34.0904C31.2155 34.0904 30.6376 33.8511 30.2114 33.425L23.3932 26.6068C22.9669 26.1807 22.7274 25.6027 22.7273 25V11.3636C22.7273 10.7609 22.9667 10.1828 23.3929 9.75657C23.8192 9.33035 24.3972 9.09091 25 9.09091C25.6028 9.09091 26.1808 9.33035 26.6071 9.75657C27.0333 10.1828 27.2727 10.7609 27.2727 11.3636V24.0591L33.425 30.2114C33.8511 30.6376 34.0904 31.2155 34.0904 31.8182C34.0904 32.4208 33.8511 32.9988 33.425 33.425Z" fill="#E0E0E0"/>
</svg>
