<svg width="25" height="30" viewBox="0 0 25 30" fill="none" xmlns="http://www.w3.org/2000/svg">
<path d="M18.3159 8.48539C18.4125 8.20431 18.4911 7.92324 18.5394 7.64216C19.409 2.35058 16.8363 2.16727 16.8363 2.16727C16.8363 2.16727 16.4075 1.33626 15.2842 0.706891C14.5292 0.254723 13.4784 -0.0935678 12.0954 0.0225292C11.6484 0.0469707 11.2257 0.132516 10.8271 0.266944C10.3198 0.438034 9.85475 0.69467 9.432 0.987968C8.91261 1.31793 8.42342 1.72732 7.99462 2.19171C7.31217 2.8944 6.7022 3.81096 6.4425 4.94749C6.21905 5.79683 6.2734 6.68283 6.45458 7.64216C6.5029 7.92324 6.57537 8.1982 6.67804 8.48539C6.16469 8.43651 5.55471 8.73592 6.12845 10.7829C6.53913 12.2799 6.92565 12.6954 7.22158 12.7199C7.49335 14.498 8.84618 16.7588 11.0747 17.5532C11.9867 17.877 12.9892 17.877 13.9011 17.5471C16.0934 16.7466 17.4946 14.4919 17.7663 12.7199C18.0623 12.6954 18.4488 12.2738 18.8655 10.7829C19.4392 8.73592 18.8293 8.43651 18.3159 8.48539Z" fill="white"/>
<path d="M22.622 19.6674C19.4876 18.8608 16.9389 17.046 16.9389 17.046L14.5775 24.6045L14.5715 24.5862L14.2454 25.6005L13.1945 22.5881C15.7733 18.9463 12.6751 18.983 12.5 18.9891C12.3249 18.983 9.22666 18.9463 11.8055 22.5881L10.7546 25.6005L10.4285 24.5862L10.4225 24.6045L8.06106 17.046C8.06106 17.046 5.51244 18.8608 2.378 19.6674C0.0407614 20.2662 -0.073987 22.9975 0.022643 24.354C0.0105643 24.354 0.14947 26.1871 0.282336 26.9937C0.282336 26.9937 4.84811 29.9939 12.494 30C20.1398 30 24.7056 26.9937 24.7056 26.9937C24.8445 26.1871 24.9774 24.354 24.9774 24.354C25.074 23.0036 24.9592 20.2723 22.622 19.6674Z" fill="white"/>
</svg>
