<svg width="30" height="28" viewBox="0 0 30 28" fill="none" xmlns="http://www.w3.org/2000/svg">
<path d="M29.4003 21.0592L18.89 2.32155C17.1733 -0.773849 12.8321 -0.773849 11.1216 2.32155L0.605129 21.0592C-1.11159 24.1546 1.02505 28 4.48936 28H25.479C28.9433 28 31.117 24.1164 29.4003 21.0592ZM14.9996 23.8431C14.0857 23.8431 13.3261 23.0613 13.3261 22.1207C13.3261 21.18 14.0857 20.3982 14.9996 20.3982C15.9136 20.3982 16.6731 21.18 16.6361 22.1651C16.6793 23.0613 15.8765 23.8431 14.9996 23.8431ZM16.5249 12.7073C16.4508 14.0421 16.3705 15.3705 16.2964 16.7053C16.2594 17.1375 16.2594 17.5316 16.2594 17.9574C16.2223 18.663 15.6851 19.2096 14.9996 19.2096C14.3142 19.2096 13.7831 18.7011 13.7399 17.9956C13.6287 15.9171 13.5114 13.8769 13.4002 11.7984C13.3632 11.2518 13.3261 10.6988 13.2829 10.1522C13.2829 9.24964 13.7769 8.50599 14.5797 8.27081C15.3825 8.07378 16.1791 8.46785 16.5249 9.24964C16.6422 9.52295 16.6793 9.79627 16.6793 10.1141C16.6422 10.9848 16.562 11.8493 16.5249 12.7073Z" fill="white"/>
</svg>
