<svg width="55" height="51" viewBox="0 0 55 51" fill="none" xmlns="http://www.w3.org/2000/svg">
<path d="M53.9005 38.2488L34.6317 4.78869C31.4844 -0.738807 23.5255 -0.738807 20.3895 4.78869L1.1094 38.2488C-2.03791 43.7763 1.87925 50.6431 8.23049 50.6431H46.7115C53.0628 50.6431 57.0478 43.7082 53.9005 38.2488ZM27.4993 43.2201C25.8238 43.2201 24.4312 41.824 24.4312 40.1442C24.4312 38.4644 25.8238 37.0684 27.4993 37.0684C29.1749 37.0684 30.5674 38.4644 30.4994 40.2237C30.5787 41.824 29.1069 43.2201 27.4993 43.2201ZM30.2957 23.3347C30.1598 25.7183 30.0126 28.0904 29.8768 30.4739C29.8088 31.2458 29.8088 31.9495 29.8088 32.7099C29.7409 33.9698 28.756 34.9459 27.4993 34.9459C26.2426 34.9459 25.269 34.0379 25.1898 32.778C24.986 29.0665 24.7709 25.4232 24.5671 21.7117C24.4992 20.7356 24.4312 19.7481 24.352 18.772C24.352 17.1603 25.2577 15.8323 26.7295 15.4124C28.2012 15.0605 29.6617 15.7642 30.2957 17.1603C30.5108 17.6483 30.5787 18.1364 30.5787 18.7039C30.5108 20.2589 30.3636 21.8025 30.2957 23.3347Z" fill="#E0E0E0"/>
</svg>
