<svg width="50" height="50" viewBox="0 0 50 50" fill="none" xmlns="http://www.w3.org/2000/svg">
<path fill-rule="evenodd" clip-rule="evenodd" d="M13.8382 49.925C13.8389 49.9247 13.8397 49.9244 13.8405 49.9241L38.3845 41.0145C38.7651 40.8763 38.9628 40.4527 38.826 40.0683C38.6892 39.6839 38.2697 39.4842 37.889 39.6224L13.5594 48.4542L7.91438 32.5979C7.77753 32.2135 7.35801 32.0139 6.97736 32.1521C6.59671 32.2903 6.39908 32.714 6.53593 33.0984L12.2599 49.1765L12.2612 49.1802C12.4917 49.8168 13.1928 50.162 13.8382 49.925ZM6.34945 30.3903C6.73007 30.252 6.92763 29.8283 6.79071 29.4439L1.52952 14.6745C4.28086 13.6797 7.14738 12.7048 10.0481 11.7195C10.4315 11.5893 10.6377 11.1698 10.5088 10.7826C10.3798 10.3955 9.96447 10.1872 9.58108 10.3174C6.60616 11.328 3.65089 12.333 0.816959 13.361L0.813176 13.3624C0.181254 13.5956 -0.156363 14.3024 0.071009 14.9501L0.0721579 14.9534L5.41235 29.9447C5.54927 30.329 5.96883 30.5286 6.34945 30.3903Z" fill="#999999"/>
<path fill-rule="evenodd" clip-rule="evenodd" d="M14.6503 43.8754C14.7677 44.5508 15.4069 45.0004 16.0692 44.8902L16.074 44.8894L41.6342 40.4633C42.0329 40.3943 42.3007 40.012 42.2324 39.6094C42.164 39.2067 41.7854 38.9363 41.3868 39.0053L16.0544 43.3919L13.1982 26.5616L13.1982 26.5615L10.0471 8.00873L18.7551 6.50132C19.1538 6.43231 19.4216 6.04997 19.3533 5.64736C19.2849 5.24474 18.9063 4.9743 18.5076 5.04331L9.56577 6.5912C8.89964 6.70908 8.44842 7.35129 8.56433 8.02928C8.56439 8.02961 8.56444 8.02994 8.5645 8.03028L11.7545 26.8114L11.7545 26.8116L14.6497 43.8724L14.6503 43.8754Z" fill="#999999"/>
<path fill-rule="evenodd" clip-rule="evenodd" d="M17.8989 39.2063C17.8989 39.899 18.4555 40.474 19.1514 40.474H48.7475C49.4436 40.474 49.9999 39.8988 49.9999 39.2063V6.96029C49.9999 6.87043 49.9907 6.74975 49.9439 6.6171C49.8964 6.48207 49.8265 6.38138 49.7666 6.30971C49.7139 6.24663 49.6555 6.19079 49.6194 6.15631C49.5751 6.11396 49.5365 6.07798 49.4842 6.02651C49.4822 6.02452 49.4802 6.02254 49.4781 6.02057L43.7737 0.52733L43.7722 0.525904C43.7206 0.476498 43.6443 0.402101 43.6048 0.364569C43.558 0.320007 43.4957 0.262069 43.4264 0.21019C43.3506 0.153354 43.2515 0.0920845 43.1251 0.050507C42.9993 0.00911907 42.8851 0 42.7954 0H19.1514C18.4607 0 17.8989 0.566858 17.8989 1.26478V21.1483C17.8989 21.5568 18.2268 21.888 18.6313 21.888C19.0358 21.888 19.3638 21.5568 19.3638 21.1483V1.47928H42.6399C42.6492 1.48819 42.6591 1.49781 42.67 1.50832C42.697 1.53453 42.7285 1.56505 42.7638 1.59884C42.764 1.599 42.7641 1.59916 42.7643 1.59932L48.4612 7.0852C48.4623 7.08627 48.4633 7.08734 48.4644 7.08841C48.4895 7.11311 48.5134 7.13622 48.5351 7.157V38.9947H19.3638V24.5801C19.3638 24.1716 19.0358 23.8405 18.6313 23.8405C18.2268 23.8405 17.8989 24.1716 17.8989 24.5801V39.2063Z" fill="#999999"/>
<path fill-rule="evenodd" clip-rule="evenodd" d="M43.1937 6.19229C43.1886 6.1848 43.1497 6.12619 43.1497 5.94928V5.94768L43.1385 0.738066C43.1377 0.329577 42.809 -0.000854913 42.4045 2.6522e-05C42 0.000907957 41.6728 0.332769 41.6737 0.741259L41.6848 5.94928C41.6848 5.94957 41.6848 5.94986 41.6848 5.95016C41.685 6.35563 41.7782 6.72462 41.987 7.031C42.1963 7.33801 42.4783 7.51867 42.7463 7.62281C43.1819 7.79212 43.6769 7.78527 43.9122 7.78202C43.9394 7.78164 43.9632 7.78131 43.9831 7.78131H49.2676C49.6721 7.78131 50 7.45016 50 7.04167C50 6.63318 49.6721 6.30203 49.2676 6.30203H43.9831C43.9462 6.30203 43.9113 6.30227 43.8775 6.3025C43.7715 6.30321 43.6771 6.30385 43.5719 6.29684C43.4379 6.28792 43.3398 6.26845 43.2724 6.24224C43.2125 6.21896 43.1985 6.19937 43.1937 6.19229Z" fill="#999999"/>
<path fill-rule="evenodd" clip-rule="evenodd" d="M22.8942 11.4846C22.8942 11.8931 23.2221 12.2243 23.6266 12.2243H44.5671C44.9716 12.2243 45.2995 11.8931 45.2995 11.4846C45.2995 11.0761 44.9716 10.745 44.5671 10.745H23.6266C23.2221 10.745 22.8942 11.0761 22.8942 11.4846Z" fill="#999999"/>
<path fill-rule="evenodd" clip-rule="evenodd" d="M22.8942 16.7391C22.8942 17.1476 23.2221 17.4788 23.6266 17.4788H44.5671C44.9716 17.4788 45.2995 17.1476 45.2995 16.7391C45.2995 16.3306 44.9716 15.9995 44.5671 15.9995H23.6266C23.2221 15.9995 22.8942 16.3306 22.8942 16.7391Z" fill="#999999"/>
<path fill-rule="evenodd" clip-rule="evenodd" d="M22.8942 21.9937C22.8942 22.4021 23.2221 22.7333 23.6266 22.7333H44.5671C44.9716 22.7333 45.2995 22.4021 45.2995 21.9937C45.2995 21.5852 44.9716 21.254 44.5671 21.254H23.6266C23.2221 21.254 22.8942 21.5852 22.8942 21.9937Z" fill="#999999"/>
<path fill-rule="evenodd" clip-rule="evenodd" d="M22.8942 27.2482C22.8942 27.6566 23.2221 27.9878 23.6266 27.9878H44.5671C44.9716 27.9878 45.2995 27.6566 45.2995 27.2482C45.2995 26.8397 44.9716 26.5085 44.5671 26.5085H23.6266C23.2221 26.5085 22.8942 26.8397 22.8942 27.2482Z" fill="#999999"/>
<path fill-rule="evenodd" clip-rule="evenodd" d="M22.8942 32.5027C22.8942 32.9112 23.2221 33.2424 23.6266 33.2424H44.5671C44.9716 33.2424 45.2995 32.9112 45.2995 32.5027C45.2995 32.0942 44.9716 31.7631 44.5671 31.7631H23.6266C23.2221 31.7631 22.8942 32.0942 22.8942 32.5027Z" fill="#999999"/>
</svg>
